<?xml version="1.0" encoding="UTF-8"?>
<svg version="1.1" xmlns="http://www.w3.org/2000/svg" width="800" height="600">
<path d="M0 0 C0.83660156 0.31195313 1.67320313 0.62390625 2.53515625 0.9453125 C4.7665537 1.85624319 6.86927361 2.87500827 9 4 C9.7734375 4.39574219 10.546875 4.79148437 11.34375 5.19921875 C33.35579038 17.35460181 46.22881287 40.01692231 53.05249023 63.48217773 C56.87816866 77.37754525 59.12202057 91.65558137 59.203125 106.07421875 C59.21009399 106.91254745 59.21706299 107.75087616 59.22424316 108.61460876 C59.24154023 111.30562415 59.24796272 113.99643134 59.25 116.6875 C59.25100708 117.60529236 59.25201416 118.52308472 59.25305176 119.46868896 C59.24287533 133.162863 58.87555121 146.55825581 56 160 C55.85546387 160.68513672 55.71092773 161.37027344 55.56201172 162.07617188 C49.95726029 187.52410194 37.97100616 212.26824465 15.78125 227.16015625 C-3.72940798 239.21208415 -27.14778545 242.05893054 -49.6796875 238.38671875 C-70.4003911 233.32908465 -87.82522495 220.64363954 -99.19140625 202.61328125 C-122.62653804 163.75914686 -124.49249393 111.87490351 -114.35668945 68.47924805 C-108.42010512 44.83085838 -95.78697922 19.86996365 -74.26220703 6.95751953 C-52.40312719 -5.56172013 -23.85495522 -9.38661739 0 0 Z M-45.90234375 39.2890625 C-60.531283 60.25823969 -59.22078989 91.81753806 -59.1875 116.375 C-59.18689575 117.20360535 -59.1862915 118.03221069 -59.18566895 118.88592529 C-60.01163951 159.55773951 -60.01163951 159.55773951 -45.625 196.5 C-40.54096861 201.34193466 -37.04448923 203.23714282 -30.0625 203.5625 C-24.18891049 203.32784973 -20.26421451 202.09211617 -16 198 C0.73885969 178.22478901 -0.63770915 145.50961635 -0.73925781 121.11645508 C-0.74998182 118.0676684 -0.73928099 115.01947224 -0.7265625 111.97070312 C-0.40227479 73.84625063 -0.40227479 73.84625063 -14 39 C-18.81713095 34.19609384 -22.92721773 31.71274261 -29.75 31.5625 C-37.13950555 31.74207486 -41.18813939 33.61652912 -45.90234375 39.2890625 Z " fill="#00BAFF" transform="translate(124,87)"/>
<path d="M0 0 C14.97855154 -0.0906692 29.95696035 -0.16419499 44.93572235 -0.20724869 C51.89230754 -0.22778016 58.84870877 -0.2557178 65.80517578 -0.30175781 C72.5290324 -0.34623672 79.25265927 -0.36919371 85.97666931 -0.37950897 C88.53127534 -0.38685226 91.08587195 -0.4011908 93.64039612 -0.42292023 C113.30090462 -0.58337967 133.028642 -0.5264474 148.3125 13.75 C162.13809514 28.67824997 164.69870949 48.71173532 164.25 68.3046875 C163.47593219 86.71976073 159.47305428 103.11135446 145.8125 116.1875 C126.09381108 132.97636703 96.18428286 129.14425241 72 129 C72.08463776 136.31115339 72.17961043 143.62209708 72.28752708 150.93294621 C72.33732589 154.32822196 72.38365621 157.72346907 72.421875 161.11889648 C72.46603887 165.02865654 72.52562151 168.93811072 72.5859375 172.84765625 C72.59748871 174.05833267 72.60903992 175.26900909 72.62094116 176.51637268 C72.74176561 184.95672428 72.74176561 184.95672428 75 193 C79.50288045 196.31960235 79.50288045 196.31960235 93 197 C93 208.22 93 219.44 93 231 C62.31 231 31.62 231 0 231 C0 219.78 0 208.56 0 197 C7.425 196.01 7.425 196.01 15 195 C18.24849977 193.27773504 18.24849977 193.27773504 19 190 C19.09354875 187.99450174 19.12629356 185.9859808 19.12698364 183.978302 C19.13121338 182.08977005 19.13121338 182.08977005 19.13552856 180.16308594 C19.13358418 178.76513658 19.131536 177.36718736 19.12939453 175.96923828 C19.13074936 174.4990942 19.13252976 173.02895047 19.13470459 171.55880737 C19.13926997 167.56290053 19.13749281 163.56701946 19.1343255 159.57111216 C19.13179635 155.39074032 19.13414109 151.2103707 19.13571167 147.02999878 C19.13753214 140.00713708 19.13513069 132.98428589 19.13037109 125.96142578 C19.12493294 117.84363401 19.12668837 109.72586737 19.1321975 101.60807621 C19.13673717 94.6398402 19.13737486 87.67161176 19.13475883 80.70337474 C19.13320022 76.54102662 19.13299084 72.37869029 19.13629532 68.21634293 C19.13918626 64.30117494 19.13717581 60.38603929 19.13140106 56.47087479 C19.13007985 55.03457188 19.13045674 53.59826624 19.13266373 52.16196442 C19.13540039 50.1998657 19.13135854 48.23776103 19.12698364 46.27566528 C19.12660662 45.17801912 19.12622959 44.08037296 19.12584114 42.9494648 C19.06026802 39.63340577 19.06026802 39.63340577 18 35 C12.06 34.34 6.12 33.68 0 33 C0 22.11 0 11.22 0 0 Z M72 35 C72 56.45 72 77.9 72 100 C88.67267009 100.39307056 88.67267009 100.39307056 103 93 C109.62846051 85.04243944 110.34681364 76.1034055 110.3125 66.125 C110.32861328 65.19558594 110.34472656 64.26617187 110.36132812 63.30859375 C110.36683892 55.40611558 109.12623473 48.37696105 104.875 41.625 C94.70773335 32.3418435 85.93473135 35 72 35 Z " fill="#00BAFF" transform="translate(193,89)"/>
<path d="M0 0 C3.1875 2.375 3.1875 2.375 5 4 C5.47985967 2.72942818 5.9588593 1.45853152 6.4375 0.1875 C6.70433594 -0.52019531 6.97117187 -1.22789063 7.24609375 -1.95703125 C7.86225186 -3.62672396 8.43719235 -5.31157704 9 -7 C17.58 -7 26.16 -7 35 -7 C35 24.68 35 56.36 35 89 C25.76 89 16.52 89 7 89 C6.63648438 86.9478125 6.27296875 84.895625 5.8984375 82.78125 C1.75034103 53.34107444 1.75034103 53.34107444 -14.6875 30 C-20.66226483 26.39259482 -26.16435342 26.37857758 -33 27 C-38.66784826 28.72319196 -42.89858511 33.10302912 -46 38 C-56.36365095 59.43191274 -56.36087645 84.433538 -56.31567383 107.72460938 C-56.31252278 111.10059235 -56.33605078 114.47568739 -56.36132812 117.8515625 C-56.8154986 155.69923291 -56.8154986 155.69923291 -43 190 C-36.53522599 196.1948973 -31.13299263 197.37155097 -22.29296875 197.2734375 C-17.70391129 196.89237698 -14.68373349 195.70959064 -11 193 C-10.41992188 192.58363281 -9.83984375 192.16726563 -9.2421875 191.73828125 C5.5423161 179.10846987 7.90028659 156.02254009 10 138 C18.58 138 27.16 138 36 138 C36 153.43783512 36 153.43783512 34.875 161.0625 C34.74448242 161.94808594 34.61396484 162.83367187 34.47949219 163.74609375 C30.95674166 185.8042922 23.03594434 206.29678312 5.60546875 221.1171875 C-7.13686315 230.32528941 -20.88309894 233.53489676 -36.4375 233.375 C-37.56220703 233.38660156 -38.68691406 233.39820313 -39.84570312 233.41015625 C-50.8683876 233.37216883 -61.36316434 231.51501209 -71.1875 226.375 C-71.86039063 226.02945068 -72.53328125 225.68390137 -73.2265625 225.32788086 C-79.32361761 222.0635866 -84.22293318 218.00126129 -89 213 C-89.69351563 212.31421875 -90.38703125 211.6284375 -91.1015625 210.921875 C-118.07853144 182.79916607 -119.87445365 138.8735491 -119.28515625 102.29296875 C-118.53103693 66.69937637 -108.92650501 30.88237534 -82.796875 5.42578125 C-60.08649915 -14.2713464 -25.11809753 -16.03100423 0 0 Z " fill="#00BAFF" transform="translate(757,93)"/>
<path d="M0 0 C53.46 0 106.92 0 162 0 C162 28.71 162 57.42 162 87 C154.41 87 146.82 87 139 87 C137.51243887 84.02487774 137.8010476 81.19059001 137.6875 77.875 C137.02881182 65.08801576 134.88014225 50.59744656 125.2578125 41.3203125 C121.24353678 38.37206851 117.65791123 37.70519604 112.7265625 37.37890625 C111.65229004 37.30357666 110.57801758 37.22824707 109.47119141 37.15063477 C108.65569824 37.10092529 107.84020508 37.05121582 107 37 C107.08387196 56.73205365 107.178995 76.46402243 107.28752708 96.19595623 C107.33765739 105.35775265 107.38410028 114.5195401 107.421875 123.68139648 C107.45480724 131.66649583 107.49464531 139.65152569 107.54279006 147.63654834 C107.56804277 151.86488566 107.5898277 156.09317696 107.60334396 160.32156944 C107.61617544 164.30160868 107.63824158 168.28148997 107.66738319 172.26144218 C107.67645047 173.72191409 107.68214723 175.18241142 107.68421364 176.64291 C107.687542 178.6380492 107.704206 180.63315282 107.7215271 182.6282196 C107.72705786 183.74451091 107.73258862 184.86080221 107.73828697 186.01092052 C108.00640128 189.07311038 108.61839755 191.26361071 110 194 C115.97037854 197.11498011 126.14719492 196.54978422 132 197 C132 208.22 132 219.44 132 231 C98.67 231 65.34 231 31 231 C31 219.78 31 208.56 31 197 C40.3125 196.1875 40.3125 196.1875 43.2355957 195.95385742 C43.99960693 195.88013916 44.76361816 195.8064209 45.55078125 195.73046875 C46.72120972 195.62835083 46.72120972 195.62835083 47.9152832 195.52416992 C50.48236842 194.87871589 51.41462678 194.1036857 53 192 C54.13024892 188.5953617 54.13746976 185.35520183 54.15821838 181.78643799 C54.1680072 180.51040207 54.17779602 179.23436615 54.18788147 177.91966248 C54.19378528 176.50796546 54.19959575 175.09626806 54.20532227 173.68457031 C54.21490365 172.19631174 54.22491388 170.70805588 54.23532104 169.21980286 C54.262348 165.18092966 54.28336952 161.1420448 54.30332303 157.10313129 C54.32519621 152.88170054 54.35257838 148.66030564 54.37937927 144.43890381 C54.42928814 136.44567282 54.47423368 128.45242191 54.51740164 120.45915198 C54.56678944 111.35884596 54.62170185 102.25857591 54.67708123 93.15830469 C54.79087355 74.4389032 54.89771859 55.71946775 55 37 C53.08020348 37.12636683 51.16103737 37.26233506 49.2421875 37.40234375 C47.63899658 37.51437134 47.63899658 37.51437134 46.00341797 37.62866211 C40.1418962 38.35337147 36.58767659 40.99414407 32.8125 45.5 C24.546203 57.65761234 24.44831028 72.82411451 23 87 C15.41 87 7.82 87 0 87 C0 58.29 0 29.58 0 0 Z " fill="#00BAFF" transform="translate(365,89)"/>
<path d="M0 0 C30.36 0 60.72 0 92 0 C92 10.89 92 21.78 92 33 C87.05 33.33 82.1 33.66 77 34 C72.72423849 38.27576151 72.87549737 41.12679792 72.86628723 47.02133179 C72.86202225 48.25504013 72.85775726 49.48874847 72.85336304 50.75984192 C72.85371254 52.12423709 72.85417406 53.48863224 72.85473633 54.85302734 C72.85174364 56.29214058 72.84834086 57.73125301 72.84455872 59.17036438 C72.83572562 63.07743486 72.83338089 66.98448344 72.83274293 70.89156294 C72.83203203 73.33325522 72.82989696 75.77494194 72.82724571 78.21663284 C72.81799457 86.73687341 72.81391054 95.25709833 72.81469727 103.77734375 C72.815298 111.71622457 72.8047465 119.65503742 72.7889536 127.59390104 C72.77587281 134.41270593 72.7705136 141.23148862 72.77115268 148.05030596 C72.77140751 152.12158829 72.76856458 156.19281023 72.75797462 160.26408005 C72.74828458 164.09392973 72.74822066 167.92366137 72.75549126 171.75351524 C72.75653597 173.15715012 72.7541809 174.56079237 72.7481308 175.9644146 C72.74039226 177.88449507 72.74626344 179.80461586 72.75276184 181.72470093 C72.75221707 182.79800344 72.75167231 183.87130596 72.75111103 184.9771328 C73.02039312 188.24768349 73.84437314 190.93906468 75 194 C76.52030242 194.31507274 78.041276 194.62690732 79.5625 194.9375 C80.40941406 195.11152344 81.25632812 195.28554688 82.12890625 195.46484375 C85.40244382 196.07501334 88.70354917 196.52907845 92 197 C92 208.22 92 219.44 92 231 C61.64 231 31.28 231 0 231 C0 219.78 0 208.56 0 197 C7.425 196.01 7.425 196.01 15 195 C19.04845956 190.95154044 19.1252558 188.51439983 19.13371277 183.01626587 C19.13797775 181.76565872 19.14224274 180.51505157 19.14663696 179.22654724 C19.14628744 177.83804318 19.1458259 176.44953915 19.14526367 175.06103516 C19.1482554 173.60074274 19.15165796 172.14045111 19.15544128 170.68016052 C19.1642844 166.71111655 19.16661954 162.74209412 19.16725707 158.77304125 C19.16820616 155.46041713 19.17188449 152.14779805 19.17542917 148.83517587 C19.18357501 141.01967195 19.18601329 133.20417955 19.18530273 125.38867188 C19.18470198 117.32539231 19.19525305 109.26217966 19.2110464 101.19891703 C19.22412058 94.27738875 19.22948668 87.35588233 19.22884732 80.43434179 C19.22859229 76.29991962 19.23144647 72.16555688 19.24202538 68.031147 C19.25170424 64.14221838 19.25178701 60.25340605 19.24450874 56.36447334 C19.24346262 54.9378435 19.24582746 53.51120643 19.2518692 52.084589 C19.25958781 50.13564115 19.25374553 48.18665369 19.24723816 46.23770142 C19.24805531 44.60229369 19.24805531 44.60229369 19.24888897 42.93384743 C18.99037035 39.88648783 18.38777512 37.71745058 17 35 C11.89662421 32.44831211 5.69311026 33.37954068 0 33 C0 22.11 0 11.22 0 0 Z " fill="#00BAFF" transform="translate(535,89)"/>
<path d="M0 0 C1.38131104 0.01353516 1.38131104 0.01353516 2.79052734 0.02734375 C14.80817318 0.33347165 23.6006568 4.35509001 32.5625 12.4375 C48.60741127 30.69237075 49.57875206 55.36238597 48.5625 78.4375 C47.13117145 95.67428203 41.04555508 111.37665817 27.859375 122.9296875 C16.21532602 132.44372752 3.01453699 132.74663397 -11.4375 131.4375 C-21.31897255 129.60035054 -29.70419897 123.39712802 -35.96484375 115.63671875 C-49.90894566 94.81303341 -52.04745403 66.05116972 -47.36132812 41.75927734 C-43.93137031 27.58831711 -36.78297874 13.87025567 -24.5 5.5 C-16.70357918 1.26188279 -8.79358414 -0.10370175 0 0 Z M-9.4375 25.4375 C-16.19636468 36.7650746 -15.78834326 50.56267342 -15.75317383 63.34741211 C-15.75001766 65.7366321 -15.77355607 68.12460403 -15.79882812 70.51367188 C-15.8530217 83.72848085 -15.83449299 99.98379372 -6.6875 110.4375 C-3.23518487 111.97186228 -0.08922358 112.1495156 3.5625 111.4375 C8.99199219 108.40951397 10.88336457 104.65741962 12.75 98.81640625 C17.74655792 78.03745143 20.237785 44.75133799 9.5625 25.4375 C7.40776438 22.52604176 5.20217034 20.8208414 1.57421875 19.97265625 C-3.90139109 19.54986905 -6.29276805 21.1571704 -9.4375 25.4375 Z " fill="#000000" transform="translate(563.4375,413.5625)"/>
<path d="M0 0 C1.38131104 0.01353516 1.38131104 0.01353516 2.79052734 0.02734375 C14.80817318 0.33347165 23.6006568 4.35509001 32.5625 12.4375 C48.60741127 30.69237075 49.57875206 55.36238597 48.5625 78.4375 C47.13117145 95.67428203 41.04555508 111.37665817 27.859375 122.9296875 C16.21532602 132.44372752 3.01453699 132.74663397 -11.4375 131.4375 C-21.31897255 129.60035054 -29.70419897 123.39712802 -35.96484375 115.63671875 C-49.90894566 94.81303341 -52.04745403 66.05116972 -47.36132812 41.75927734 C-43.93137031 27.58831711 -36.78297874 13.87025567 -24.5 5.5 C-16.70357918 1.26188279 -8.79358414 -0.10370175 0 0 Z M-9.4375 25.4375 C-16.19636468 36.7650746 -15.78834326 50.56267342 -15.75317383 63.34741211 C-15.75001766 65.7366321 -15.77355607 68.12460403 -15.79882812 70.51367188 C-15.8530217 83.72848085 -15.83449299 99.98379372 -6.6875 110.4375 C-3.23518487 111.97186228 -0.08922358 112.1495156 3.5625 111.4375 C8.99199219 108.40951397 10.88336457 104.65741962 12.75 98.81640625 C17.74655792 78.03745143 20.237785 44.75133799 9.5625 25.4375 C7.40776438 22.52604176 5.20217034 20.8208414 1.57421875 19.97265625 C-3.90139109 19.54986905 -6.29276805 21.1571704 -9.4375 25.4375 Z " fill="#000000" transform="translate(133.4375,413.5625)"/>
<path d="M0 0 C14.19 0 28.38 0 43 0 C48.62442576 13.49862183 48.62442576 13.49862183 50.57128906 18.93017578 C51.00814026 20.1440799 51.44499146 21.35798401 51.89508057 22.6086731 C52.35195769 23.88754255 52.80880516 25.16642259 53.265625 26.4453125 C53.74902812 27.79111343 54.23273773 29.1368043 54.71673584 30.48239136 C55.97487623 33.98223047 57.22963071 37.48327259 58.48339844 40.98468018 C60.50270822 46.62250949 62.5267932 52.25862433 64.55181122 57.89440536 C65.25603089 59.85608706 65.95848089 61.81839565 66.66070557 63.78079224 C67.08494812 64.96317474 67.50919067 66.14555725 67.94628906 67.36376953 C68.31981506 68.4067923 68.69334106 69.44981506 69.07818604 70.52444458 C69.93315512 72.95546242 69.93315512 72.95546242 71 75 C71 56.85 71 38.7 71 20 C67.7 19.67 64.4 19.34 61 19 C61 12.73 61 6.46 61 0 C73.21 0 85.42 0 98 0 C98 6.27 98 12.54 98 19 C94.04 19.495 94.04 19.495 90 20 C88.72883377 24.91867714 88.82601349 29.79504224 88.79467773 34.83911133 C88.78477814 35.82495209 88.77487854 36.81079285 88.76467896 37.82650757 C88.73314383 41.07832454 88.70833807 44.33015611 88.68359375 47.58203125 C88.66301733 49.83933385 88.64202068 52.09663266 88.62062073 54.35392761 C88.56547114 60.29028243 88.51603048 66.22667162 88.46777344 72.16308594 C88.41750647 78.2226873 88.36184753 84.28223886 88.30664062 90.34179688 C88.19914604 102.22782359 88.09818011 114.11389269 88 126 C78.76 126 69.52 126 60 126 C55.5001815 115.87540837 55.5001815 115.87540837 53.94458008 111.67749023 C53.59353714 110.73457626 53.2424942 109.79166229 52.8808136 108.82017517 C52.51409042 107.8263533 52.14736725 106.83253143 51.76953125 105.80859375 C51.37481125 104.74625015 50.98009125 103.68390656 50.57341003 102.58937073 C49.31707067 99.20640937 48.06465132 95.82201345 46.8125 92.4375 C45.58233853 89.12036631 44.35135729 85.80353761 43.12033081 82.48672485 C42.30562599 80.29136037 41.4912724 78.09586551 40.67727661 75.90023804 C36.48203976 64.58871044 32.24504724 53.29291351 28 42 C27.97679877 49.47590034 27.95904527 56.95179288 27.94818783 64.42772198 C27.94297601 67.89933738 27.93590932 71.3709281 27.92456055 74.8425293 C27.91158652 78.83642815 27.90675772 82.83030119 27.90234375 86.82421875 C27.89718246 88.06709152 27.89202118 89.30996429 27.88670349 90.59049988 C27.88662796 91.75132584 27.88655243 92.91215179 27.88647461 94.1081543 C27.88314369 95.63704536 27.88314369 95.63704536 27.87974548 97.19682312 C27.99582006 99.90256415 28.39084966 102.36549032 29 105 C31.97 105.66 34.94 106.32 38 107 C38 113.27 38 119.54 38 126 C25.46 126 12.92 126 0 126 C0 119.73 0 113.46 0 107 C4.455 106.01 4.455 106.01 9 105 C12.85482756 101.14517244 11.13382305 89.99614389 11.13894653 84.90550232 C11.13715656 83.46694912 11.13510556 82.02839623 11.1328125 80.58984375 C11.13348732 79.0934701 11.13445884 77.59709655 11.13571167 76.10072327 C11.13717978 72.97656197 11.13506241 69.85242942 11.13037109 66.72827148 C11.12466938 62.73839758 11.12796125 58.7485909 11.13394356 54.75871944 C11.13756893 51.67281087 11.1364016 48.58691805 11.13381577 45.50100899 C11.13315222 44.03030959 11.13395475 42.55960874 11.13629532 41.08891106 C11.138855 39.02920654 11.13493516 36.96960874 11.12939453 34.90991211 C11.12859894 33.74157333 11.12780334 32.57323456 11.12698364 31.36949158 C11.26131006 25.255622 11.26131006 25.255622 9 20 C6.03 19.67 3.06 19.34 0 19 C0 12.73 0 6.46 0 0 Z " fill="#000000" transform="translate(617,417)"/>
<path d="M0 0 C0.8674585 0.00660645 1.73491699 0.01321289 2.62866211 0.02001953 C11.45849809 0.28037074 18.84626813 2.62667875 26.25 7.5625 C26.91 6.2425 27.57 4.9225 28.25 3.5625 C32.54 3.5625 36.83 3.5625 41.25 3.5625 C41.25 18.0825 41.25 32.6025 41.25 47.5625 C36.63 47.5625 32.01 47.5625 27.25 47.5625 C26.93546875 46.54929687 26.6209375 45.53609375 26.296875 44.4921875 C25.8650756 43.14046765 25.43275612 41.78891386 25 40.4375 C24.79503906 39.77234375 24.59007812 39.1071875 24.37890625 38.421875 C22.3331886 32.0987477 19.63985489 26.43943855 13.4453125 23.26171875 C8.77621906 21.77458756 4.0545511 21.75151903 -0.75 22.5625 C-3.72361086 24.77813162 -5.11959793 26.30169585 -6.75 29.5625 C-7.11031173 33.38180437 -7.23550647 35.74785797 -5.24609375 39.0859375 C-1.97892341 42.32754312 1.20614862 43.40393732 5.5 44.875 C35.22099121 55.82817757 35.22099121 55.82817757 42.453125 69.3515625 C45.03777081 75.46398559 44.84949863 81.83857164 44.77148438 88.36401367 C44.75006852 90.49318772 44.77134481 92.61897627 44.796875 94.74804688 C44.82451754 107.05615484 42.24054727 115.38852371 33.62890625 124.42578125 C24.72295565 132.42505051 13.91908562 132.32208534 2.59667969 131.80224609 C-4.63924556 131.0629953 -10.67447296 127.27532208 -16.75 123.5625 C-17.74 125.5425 -18.73 127.5225 -19.75 129.5625 C-24.04 129.5625 -28.33 129.5625 -32.75 129.5625 C-32.75 114.0525 -32.75 98.5425 -32.75 82.5625 C-28.46 82.5625 -24.17 82.5625 -19.75 82.5625 C-19.193125 84.00625 -18.63625 85.45 -18.0625 86.9375 C-17.29998234 88.81589715 -16.52881119 90.69079966 -15.75 92.5625 C-15.38777344 93.43519531 -15.02554688 94.30789063 -14.65234375 95.20703125 C-11.84367533 101.40514359 -8.39727199 105.69919887 -2.75 109.5625 C1.58320102 111.00690034 5.7214847 111.10418843 10.25 110.5625 C13.18423195 108.76603146 14.72205355 107.6183929 16.25 104.5625 C16.88338876 99.50121551 16.88338876 99.50121551 15.30566406 94.8034668 C10.71838442 89.15051407 5.1808948 86.81438038 -1.4375 84.0625 C-15.32894849 78.1776249 -26.07887632 72.94741419 -32.5625 58.8125 C-37.08711664 46.42933867 -35.76453117 31.1122181 -30.71875 19.109375 C-26.57702835 10.8819009 -20.69935879 4.94123106 -12.21191406 1.36303711 C-8.13487488 0.03731205 -4.25907436 -0.07386877 0 0 Z " fill="#000000" transform="translate(755.75,413.4375)"/>
<path d="M0 0 C0.8674585 0.00660645 1.73491699 0.01321289 2.62866211 0.02001953 C11.45849809 0.28037074 18.84626813 2.62667875 26.25 7.5625 C26.91 6.2425 27.57 4.9225 28.25 3.5625 C32.54 3.5625 36.83 3.5625 41.25 3.5625 C41.25 18.0825 41.25 32.6025 41.25 47.5625 C36.63 47.5625 32.01 47.5625 27.25 47.5625 C26.93546875 46.54929687 26.6209375 45.53609375 26.296875 44.4921875 C25.8650756 43.14046765 25.43275612 41.78891386 25 40.4375 C24.79503906 39.77234375 24.59007812 39.1071875 24.37890625 38.421875 C22.3331886 32.0987477 19.63985489 26.43943855 13.4453125 23.26171875 C8.77621906 21.77458756 4.0545511 21.75151903 -0.75 22.5625 C-3.72361086 24.77813162 -5.11959793 26.30169585 -6.75 29.5625 C-7.11031173 33.38180437 -7.23550647 35.74785797 -5.24609375 39.0859375 C-1.97892341 42.32754312 1.20614862 43.40393732 5.5 44.875 C35.69416564 56.00255815 35.69416564 56.00255815 42.6875 69.8125 C47.746185 83.22497673 47.45720802 98.53912357 42.48046875 111.90625 C38.41544605 120.6815371 31.61762802 127.45525532 22.48046875 130.828125 C7.97407368 134.12583029 -4.23310924 131.21171102 -16.75 123.5625 C-17.74 125.5425 -18.73 127.5225 -19.75 129.5625 C-24.04 129.5625 -28.33 129.5625 -32.75 129.5625 C-32.75 114.0525 -32.75 98.5425 -32.75 82.5625 C-28.46 82.5625 -24.17 82.5625 -19.75 82.5625 C-19.193125 84.00625 -18.63625 85.45 -18.0625 86.9375 C-17.29998234 88.81589715 -16.52881119 90.69079966 -15.75 92.5625 C-15.38777344 93.43519531 -15.02554687 94.30789063 -14.65234375 95.20703125 C-11.84367533 101.40514359 -8.39727199 105.69919887 -2.75 109.5625 C1.58320102 111.00690034 5.7214847 111.10418843 10.25 110.5625 C13.18423195 108.76603146 14.72205355 107.6183929 16.25 104.5625 C16.88338876 99.50121551 16.88338876 99.50121551 15.30566406 94.8034668 C10.71838442 89.15051407 5.1808948 86.81438038 -1.4375 84.0625 C-24.53516765 74.27756726 -24.53516765 74.27756726 -30.75 62.5625 C-31.09474365 62.01166748 -31.4394873 61.46083496 -31.79467773 60.89331055 C-33.11180748 57.67975632 -33.11380825 54.57874491 -33.15625 51.15625 C-33.16765015 50.43570435 -33.17905029 49.71515869 -33.1907959 48.97277832 C-33.20966005 47.44642973 -33.22274968 45.92000033 -33.23046875 44.39355469 C-33.24971275 42.09678366 -33.31169162 39.8037305 -33.375 37.5078125 C-33.54533458 25.69003943 -30.99927196 17.1038206 -22.9375 8.0625 C-16.60683027 1.68990531 -8.70036882 -0.15089795 0 0 Z " fill="#000000" transform="translate(32.75,413.4375)"/>
<path d="M0 0 C16.83 0 33.66 0 51 0 C51 6.27 51 12.54 51 19 C48.03 19.33 45.06 19.66 42 20 C40.10211473 21.89788527 40.85224887 25.24483627 40.83886719 27.76367188 C40.83390228 28.47112549 40.82893738 29.1785791 40.82382202 29.9074707 C40.80915312 32.26124023 40.80238728 34.61494216 40.796875 36.96875 C40.79112325 38.60485842 40.78536552 40.24096682 40.77960205 41.8770752 C40.7690758 45.31714187 40.76324516 48.7571851 40.75976562 52.19726562 C40.7543062 56.5874558 40.7303403 60.97733182 40.70179367 65.36742401 C40.68307933 68.75281648 40.67795683 72.13813502 40.67642975 75.52357483 C40.6734177 77.140566 40.66543849 78.75755632 40.65224457 80.37449646 C40.08538201 94.12473828 40.08538201 94.12473828 45.87890625 106.0390625 C50.66925792 108.20927707 56.08834933 107.69144811 60.9375 105.9375 C65.66112316 101.50015703 66.87897581 95.05038554 67.12698364 88.79940796 C67.12777924 87.59378204 67.12857483 86.38815613 67.12939453 85.14599609 C67.13114685 84.47708847 67.13289917 83.80818085 67.13470459 83.1190033 C67.13908577 80.92045454 67.13619899 78.72198699 67.1328125 76.5234375 C67.13348645 74.99077336 67.13445724 73.45810933 67.13571167 71.92544556 C67.13718344 68.71949237 67.13505021 65.51356712 67.13037109 62.30761719 C67.12466447 58.19731623 67.12796199 54.08708043 67.13394356 49.97678185 C67.13755499 46.81468209 67.13640807 43.65259781 67.13381577 40.49049759 C67.13314861 38.97462583 67.13396755 37.45875266 67.13629532 35.94288254 C67.13883241 33.82695531 67.13496674 31.71113416 67.12939453 29.59521484 C67.12859894 28.39118011 67.12780334 27.18714539 67.12698364 25.94662476 C67.13275311 22.93977715 67.13275311 22.93977715 66 20 C63.03 19.67 60.06 19.34 57 19 C57 12.73 57 6.46 57 0 C70.2 0 83.4 0 97 0 C97 6.27 97 12.54 97 19 C94.03 19.33 91.06 19.66 88 20 C86.12968263 21.87031737 86.84554258 25.0377454 86.82641602 27.5324707 C86.8163855 28.55716209 86.8163855 28.55716209 86.80615234 29.60255432 C86.79206424 31.09270225 86.78018229 32.58287224 86.77020454 34.07305336 C86.75379766 36.44145622 86.73055152 38.80970015 86.70530701 41.17802429 C86.63458326 47.91458164 86.57487309 54.65120991 86.52319336 61.38793945 C86.49111564 65.50650021 86.44975223 69.62488815 86.40299797 73.74330711 C86.3871254 75.30473858 86.37473711 76.86620994 86.36609077 78.42769814 C86.28598343 92.70869666 86.1339775 107.51353444 76.33203125 118.9453125 C67.9798062 126.55214447 59.29442568 128.20374078 48.375 128.3125 C47.42753906 128.34150391 46.48007812 128.37050781 45.50390625 128.40039062 C35.95064297 128.48533756 27.87599319 125.79327152 20.82421875 119.19921875 C14.58318483 111.67523139 11.89737694 103.44749435 11.82641602 93.86401367 C11.819729 93.15290939 11.81304199 92.44180511 11.80615234 91.70915222 C11.79213005 90.16829813 11.78022708 88.62742361 11.77020454 87.08653831 C11.75374245 84.64366119 11.7305016 82.20093469 11.70530701 79.75813293 C11.63468203 72.81368571 11.57451184 65.86917681 11.52319336 58.92456055 C11.49129978 54.67288696 11.44999818 50.42138723 11.40299797 46.16985512 C11.38704007 44.55405126 11.37469001 42.93820742 11.36609077 41.32234764 C11.35385773 39.05611009 11.32967514 36.79027693 11.30297852 34.52416992 C11.29267105 33.23717697 11.28236359 31.95018402 11.27174377 30.62419128 C10.98200759 26.76003887 10.18854886 23.67049843 9 20 C6.03 19.67 3.06 19.34 0 19 C0 12.73 0 6.46 0 0 Z " fill="#000000" transform="translate(267,417)"/>
<path d="M0 0 C29.37 0 58.74 0 89 0 C89 15.84 89 31.68 89 48 C84.38 48 79.76 48 75 48 C74.90203125 46.9378125 74.8040625 45.875625 74.703125 44.78125 C73.6232159 33.84783521 73.6232159 33.84783521 69 24 C66.09907498 22.06604999 65.10325263 21.69868059 61.8125 21.375 C60.554375 21.25125 59.29625 21.1275 58 21 C58.10771204 31.04910718 58.2203874 41.09814541 58.33933926 51.1471262 C58.39442302 55.81363721 58.44781909 60.48015462 58.49731445 65.14672852 C58.5451734 69.65309294 58.59752274 74.15938518 58.65294075 78.66566277 C58.67326714 80.38195935 58.69199565 82.09827565 58.70907402 83.81460762 C58.73333455 86.22486592 58.76335751 88.6349905 58.79467773 91.04516602 C58.80331093 92.10145203 58.80331093 92.10145203 58.81211853 93.17907715 C58.8763535 97.54893829 59.30196802 101.69744082 60 106 C63.96 106.33 67.92 106.66 72 107 C72 113.27 72 119.54 72 126 C53.52 126 35.04 126 16 126 C16 119.73 16 113.46 16 107 C19.09244792 106.54427083 22.18489583 106.08854167 25.27734375 105.6328125 C26.62505859 105.31957031 26.62505859 105.31957031 28 105 C29.54535511 101.90928978 29.17960453 98.63967134 29.20532227 95.24560547 C29.22017166 94.04547821 29.22017166 94.04547821 29.23532104 92.82110596 C29.26697262 90.16983017 29.29170789 87.51853644 29.31640625 84.8671875 C29.33697262 83.03158089 29.35796901 81.19597904 29.37937927 79.36038208 C29.43463268 74.52382261 29.48402752 69.68722017 29.53222656 64.85058594 C29.58241774 59.9172787 29.63811623 54.98403404 29.69335938 50.05078125 C29.80098092 40.36724092 29.90241701 30.68364632 30 21 C28.54786794 21.28621406 27.09769908 21.58240132 25.6484375 21.8828125 C24.84067871 22.04668457 24.03291992 22.21055664 23.20068359 22.37939453 C20.81371801 22.90074491 20.81371801 22.90074491 18.625 24.875 C14.93309917 31.97480929 13.75965037 40.09963616 13 48 C8.71 48 4.42 48 0 48 C0 32.16 0 16.32 0 0 Z " fill="#000000" transform="translate(366,417)"/>
<path d="M0 0 C16.83 0 33.66 0 51 0 C51 6.27 51 12.54 51 19 C48.03 19.33 45.06 19.66 42 20 C40.43199343 23.13601313 40.82015364 26.49305776 40.79467773 29.93798828 C40.78477814 30.75758026 40.77487854 31.57717224 40.76467896 32.42160034 C40.73302467 35.13780808 40.70829103 37.85403332 40.68359375 40.5703125 C40.66302761 42.4507595 40.64203123 44.33120183 40.62062073 46.2116394 C40.5653649 51.16656731 40.51597112 56.12153717 40.46777344 61.07653809 C40.41758402 66.13049057 40.36188461 71.18438194 40.30664062 76.23828125 C40.19901612 86.15880199 40.09758069 96.07937574 40 106 C42.22988284 105.91249445 44.45896005 105.80430939 46.6875 105.6875 C47.92886719 105.62949219 49.17023438 105.57148437 50.44921875 105.51171875 C54.10694977 104.984587 56.06318003 104.18926579 59 102 C63.5041238 95.8276822 64.40555627 89.01993804 65.125 81.625 C65.21136719 80.79355469 65.29773438 79.96210938 65.38671875 79.10546875 C65.59718843 77.07092853 65.79943314 75.0355403 66 73 C70.62 73 75.24 73 80 73 C80 90.49 80 107.98 80 126 C53.6 126 27.2 126 0 126 C0 119.73 0 113.46 0 107 C4.95 106.01 4.95 106.01 10 105 C10.87488175 100.62559125 11.12669856 97.05312107 11.12939453 92.62695312 C11.13114685 91.90273666 11.13289917 91.1785202 11.13470459 90.43235779 C11.13909041 88.04863051 11.13619664 85.66497798 11.1328125 83.28125 C11.13348648 81.61885565 11.13445729 79.9564614 11.13571167 78.29406738 C11.13718421 74.81403666 11.13504832 71.33403164 11.13037109 67.85400391 C11.12467408 63.39863285 11.12795545 58.94332204 11.13394356 54.48795319 C11.13756112 51.05641223 11.13640508 47.6248855 11.13381577 44.19334412 C11.13314981 42.5507354 11.13396333 40.90812538 11.13629532 39.26551819 C11.13884145 36.96799306 11.13495362 34.67056481 11.12939453 32.37304688 C11.12859894 31.06686401 11.12780334 29.76068115 11.12698364 28.41491699 C11.01745695 25.46946234 10.68914879 22.85681011 10 20 C6.7 19.67 3.4 19.34 0 19 C0 12.73 0 6.46 0 0 Z " fill="#000000" transform="translate(187,417)"/>
<path d="M0 0 C16.83 0 33.66 0 51 0 C51 6.27 51 12.54 51 19 C47.7 19.33 44.4 19.66 41 20 C39.99524111 24.16717189 39.8732186 28.07691292 39.87060547 32.35717773 C39.86885315 33.0797879 39.86710083 33.80239807 39.86529541 34.54690552 C39.86090908 36.92582633 39.86380385 39.30467224 39.8671875 41.68359375 C39.86651346 43.34359247 39.8655426 45.00359109 39.86428833 46.66358948 C39.86281566 50.13942405 39.86495183 53.61523288 39.86962891 57.09106445 C39.87532148 61.537369 39.87204745 65.98361311 39.86605644 70.42991543 C39.86243543 73.85720776 39.86359657 77.28448587 39.86618423 80.71177864 C39.86684947 82.35076975 39.86603921 83.98976217 39.86370468 85.62875175 C39.86115336 87.92367831 39.86505378 90.21850833 39.87060547 92.51342773 C39.87140106 93.81738998 39.87219666 95.12135223 39.87301636 96.46482849 C39.99057893 99.73772138 40.37623482 102.78920947 41 106 C44.3 106.33 47.6 106.66 51 107 C51 113.27 51 119.54 51 126 C34.17 126 17.34 126 0 126 C0 119.73 0 113.46 0 107 C4.455 106.01 4.455 106.01 9 105 C10.53206512 101.93586976 10.13850278 98.73069635 10.12939453 95.36914062 C10.13114685 94.58202194 10.13289917 93.79490326 10.13470459 92.9839325 C10.1391161 90.37468276 10.13618757 87.76550046 10.1328125 85.15625 C10.13348574 83.34785957 10.13445593 81.53946922 10.13571167 79.7310791 C10.13718769 75.93806091 10.13503714 72.14506624 10.13037109 68.35205078 C10.12467386 63.48264951 10.12795338 58.61330336 10.13394356 53.74390411 C10.13755174 50.00880516 10.1364094 46.27371934 10.13381577 42.53862 C10.13314721 40.74281304 10.13397244 38.94700491 10.13629532 37.15119934 C10.13882603 34.64438708 10.1349753 32.1376649 10.12939453 29.63085938 C10.13243088 28.51024361 10.13243088 28.51024361 10.13552856 27.36698914 C10.18500223 23.55718629 10.18500223 23.55718629 9 20 C6.03 19.67 3.06 19.34 0 19 C0 12.73 0 6.46 0 0 Z " fill="#000000" transform="translate(459,417)"/>
</svg>
